
<svg xmlns="http://www.w3.org/2000/svg" version="1.1" xmlns:xlink="http://www.w3.org/1999/xlink" preserveAspectRatio="none" x="0px" y="0px" width="48px" height="48px" viewBox="0 0 48 48">
<defs>
<g id="Layer0_0_FILL">
<path fill="#FFAB00" stroke="none" d="
M 48 24
Q 48 14 41.05 7.05 34 0 24 0 14 0 7.05 7.05 0 14 0 24 0 34 7.05 41.05 14 48 24 48 34 48 41.05 41.05 48 34 48 24
M 24.25 8
Q 26.4 8.15 28 9.35 28.4 9.6 28.65 10 30.65 11.85 30.65 14.55
L 30.65 19.45 33.35 19.45
Q 34.4 19.45 35.2 20.25 36 20.95 36 22
L 36 35.45
Q 36 36.55 35.2 37.2 34.4 38 33.35 38
L 14.65 38
Q 13.45 38 12.8 37.2 12 36.55 12 35.45
L 12 22
Q 12 20.95 12.8 20.25 13.45 19.45 14.65 19.45
L 17.2 19.45 17.2 14.55
Q 17.35 11.85 19.2 10 19.6 9.6 20 9.35 21.6 8.15 23.75 8
L 24.25 8
M 26 26.8
Q 25.2 26 24 26 22.65 26 21.6 26.8 20.95 27.85 20.95 29.05 20.95 30.25 21.6 31.05 22.65 32 24 32 25.2 32 26 31.05 26.95 30.25 26.95 29.05 26.95 27.85 26 26.8
M 26.8 11.85
Q 25.6 10.65 24 10.65 22.4 10.65 21.2 11.85 20 13.05 20 14.65
L 20 19.45 28 19.45 28 14.65
Q 28 13.05 26.8 11.85 Z"/>
</g>
</defs>

<g transform="matrix( 1, 0, 0, 1, 0,0) ">
<use xlink:href="#Layer0_0_FILL"/>
</g>
</svg>
