
<svg xmlns="http://www.w3.org/2000/svg" version="1.1" xmlns:xlink="http://www.w3.org/1999/xlink" preserveAspectRatio="none" x="0px" y="0px" width="48px" height="48px" viewBox="0 0 48 48">
<defs>
<g id="Layer0_0_FILL">
<path fill="#37474F" stroke="none" d="
M 39 15.6
L 39 15.2
Q 39 9 34.6 4.6 30.25 0.2 24 0.2 17.8 0.2 13.4 4.6 9 9 9 15.2
L 9 15.6
Q 8.65 23.5 24 48.2 39.4 23.5 39 15.6
M 36 15.2
Q 36 20.2 32.5 23.7 29 27.2 24 27.2 19 27.2 15.5 23.7 12 20.2 12 15.2 12 10.2 15.5 6.7 19 3.2 24 3.2 29 3.2 32.5 6.7 36 10.2 36 15.2 Z"/>

<path fill="#FFFFFF" stroke="none" d="
M 32.5 23.7
Q 36 20.2 36 15.2 36 10.2 32.5 6.7 29 3.2 24 3.2 19 3.2 15.5 6.7 12 10.2 12 15.2 12 20.2 15.5 23.7 19 27.2 24 27.2 29 27.2 32.5 23.7 Z"/>
</g>

<g id="Layer0_1_FILL">
<path fill="#FFAB00" stroke="none" d="
M 55.9 24
Q 53.25 21.35 49.5 21.35 45.75 21.35 43.15 24 40.5 26.6 40.5 30.35 40.5 34.1 43.15 36.75 45.75 39.35 49.5 39.35 53.25 39.35 55.9 36.75 58.5 34.1 58.5 30.35 58.5 26.6 55.9 24
M 49.4 24.35
L 49.6 24.35
Q 50.4 24.4 51 24.85 51.15 24.95 51.25 25.1 52 25.8 52 26.8
L 52 28.65 53 28.65
Q 53.4 28.65 53.7 28.95 54 29.2 54 29.6
L 54 34.65
Q 54 35.05 53.7 35.3 53.4 35.6 53 35.6
L 46 35.6
Q 45.55 35.6 45.3 35.3 45 35.05 45 34.65
L 45 29.6
Q 45 29.2 45.3 28.95 45.55 28.65 46 28.65
L 46.95 28.65 46.95 26.8
Q 47 25.8 47.7 25.1 47.85 24.95 48 24.85 48.6 24.4 49.4 24.35
M 48.6 31.4
Q 48.35 31.8 48.35 32.25 48.35 32.7 48.6 33 49 33.35 49.5 33.35 49.95 33.35 50.25 33 50.6 32.7 50.6 32.25 50.6 31.8 50.25 31.4 49.95 31.1 49.5 31.1 49 31.1 48.6 31.4
M 51 28.65
L 51 26.85
Q 51 26.25 50.55 25.8 50.1 25.35 49.5 25.35 48.9 25.35 48.45 25.8 48 26.25 48 26.85
L 48 28.65 51 28.65 Z"/>

<path fill="#FFFFFF" stroke="none" d="
M 49.6 24.35
L 49.4 24.35
Q 48.6 24.4 48 24.85 47.85 24.95 47.7 25.1 47 25.8 46.95 26.8
L 46.95 28.65 46 28.65
Q 45.55 28.65 45.3 28.95 45 29.2 45 29.6
L 45 34.65
Q 45 35.05 45.3 35.3 45.55 35.6 46 35.6
L 53 35.6
Q 53.4 35.6 53.7 35.3 54 35.05 54 34.65
L 54 29.6
Q 54 29.2 53.7 28.95 53.4 28.65 53 28.65
L 52 28.65 52 26.8
Q 52 25.8 51.25 25.1 51.15 24.95 51 24.85 50.4 24.4 49.6 24.35
M 51 26.85
L 51 28.65 48 28.65 48 26.85
Q 48 26.25 48.45 25.8 48.9 25.35 49.5 25.35 50.1 25.35 50.55 25.8 51 26.25 51 26.85
M 48.35 32.25
Q 48.35 31.8 48.6 31.4 49 31.1 49.5 31.1 49.95 31.1 50.25 31.4 50.6 31.8 50.6 32.25 50.6 32.7 50.25 33 49.95 33.35 49.5 33.35 49 33.35 48.6 33 48.35 32.7 48.35 32.25 Z"/>
</g>
</defs>

<g transform="matrix( 1, 0, 0, 1, 0,0) ">
<use xlink:href="#Layer0_0_FILL"/>
</g>

<g transform="matrix( 1, 0, 0, 1, -25.5,-15.35) ">
<use xlink:href="#Layer0_1_FILL"/>
</g>
</svg>
