
<svg xmlns="http://www.w3.org/2000/svg" version="1.1" xmlns:xlink="http://www.w3.org/1999/xlink" preserveAspectRatio="none" x="0px" y="0px" width="48px" height="48px" viewBox="0 0 48 48">
<defs>
<g id="Layer0_0_FILL">
<path fill="#757575" stroke="none" d="
M 39.2 15.6
L 39.2 15.2
Q 39.2 9 34.8 4.6 30.45 0.2 24.2 0.2 18 0.2 13.6 4.6 9.2 9 9.2 15.2
L 9.2 15.6
Q 9 20.15 14 30.2 17.3 37 23.05 46.3 23.6 47.25 24.2 48.2 24.8 47.25 25.4 46.3 31.1 37 34.45 30.2 39.45 20.15 39.2 15.6
M 36.2 15.2
Q 36.2 20.2 32.7 23.7 29.2 27.2 24.2 27.2 19.2 27.2 15.7 23.7 12.2 20.2 12.2 15.2 12.2 10.2 15.7 6.7 19.2 3.2 24.2 3.2 29.2 3.2 32.7 6.7 36.2 10.2 36.2 15.2
M 30.6 21.6
Q 33.2 18.95 33.2 15.2 33.2 11.45 30.6 8.85 27.95 6.2 24.2 6.2 20.45 6.2 17.85 8.85 15.2 11.45 15.2 15.2 15.2 18.95 17.85 21.6 20.45 24.2 24.2 24.2 27.95 24.2 30.6 21.6 Z"/>

<path fill="#FFFFFF" stroke="none" d="
M 32.7 23.7
Q 36.2 20.2 36.2 15.2 36.2 10.2 32.7 6.7 29.2 3.2 24.2 3.2 19.2 3.2 15.7 6.7 12.2 10.2 12.2 15.2 12.2 20.2 15.7 23.7 19.2 27.2 24.2 27.2 29.2 27.2 32.7 23.7
M 33.2 15.2
Q 33.2 18.95 30.6 21.6 27.95 24.2 24.2 24.2 20.45 24.2 17.85 21.6 15.2 18.95 15.2 15.2 15.2 11.45 17.85 8.85 20.45 6.2 24.2 6.2 27.95 6.2 30.6 8.85 33.2 11.45 33.2 15.2 Z"/>
</g>

<g id="Layer0_1_FILL">
<path fill="#FFFFFF" stroke="none" d="
M 28.7 15.95
L 28.65 14.45 19.7 14.45 19.7 15.95 28.7 15.95 Z"/>
</g>
</defs>

<g transform="matrix( 1, 0, 0, 1, 0,0) ">
<use xlink:href="#Layer0_0_FILL"/>
</g>

<g transform="matrix( 1, 0, 0, 1, 0,0) ">
<use xlink:href="#Layer0_1_FILL"/>
</g>
</svg>
