
<svg xmlns="http://www.w3.org/2000/svg" version="1.1" xmlns:xlink="http://www.w3.org/1999/xlink" preserveAspectRatio="none" x="0px" y="0px" width="48px" height="48px" viewBox="0 0 48 48">
<defs>
<g id="Layer0_0_FILL">
<path fill="#FFFFFF" stroke="none" d="
M 46.65 1.3
Q 45.390625 0.040625 43.6 0
L 4.35 0
Q 2.6078125 0.040625 1.3 1.3 0.040625 2.6078125 0 4.35
L 0 43.6
Q 0.040625 45.390625 1.3 46.65 2.6078125 47.9578125 4.35 48
L 43.6 48
Q 45.390625 47.9578125 46.65 46.65 47.9578125 45.390625 48 43.6
L 48 4.35
Q 47.9578125 2.6078125 46.65 1.3
M 40.85 20.05
Q 43.15 20.8 44.25 22.95 44.853515625 24.00625 45 25.15 45.123046875 26.282421875 44.8 27.5 44 29.75 41.8 30.95
L 41.7 31.05
Q 38.4 32.15 35.85 30.4 34.55 29.9 33.45 30.1 33.1 30.15 32.8 30.25 30.35 30.75 27.5 31.85 33.35 21.9 36.1 20.6
L 36.25 20.5
Q 38.4 19.35 40.85 20.05
M 17.05 37.1
Q 17.05 36.4 19.1 35.9 20.058984375 35.636328125 21.2 35.5 22.4904296875 35.35 24 35.35 25.542578125 35.35 26.8 35.5 27.995703125 35.6375 28.95 35.9 31 36.4 31 37.1 31 37.8 28.95 38.3 26.95 38.85 24 38.85 21.1 38.85 19.1 38.3 17.05 37.8 17.05 37.1
M 29.05 9.4
Q 31.1 11.5 31.1 14.4
L 31.1 14.65
Q 31.2982421875 18.3181640625 24.1 29.8 24.062890625 29.8998046875 24 30 23.9525390625 29.9232421875 23.9 29.85 16.8013671875 18.3255859375 17 14.65
L 17 14.4
Q 17 11.5 19 9.4 21.1 7.35 24 7.35 27 7.35 29.05 9.4
M 3.8 22.95
Q 4.9 20.8 7.2 20.05 9.65 19.35 11.8 20.5
L 11.9 20.6
Q 14.7 21.9 20.55 31.85 17.7 30.75 15.25 30.25 14.95 30.15 14.6 30.1 13.5 29.9 12.2 30.4 9.65 32.15 6.35 31.05
L 6.2 30.95
Q 4.05 29.75 3.25 27.5 2.9267578125 26.281640625 3.05 25.15 3.1966796875 24.005859375 3.8 22.95 Z"/>

<path fill="#455A64" stroke="none" d="
M 7.2 20.05
Q 4.9 20.8 3.8 22.95 3.1966796875 24.005859375 3.05 25.15 2.9267578125 26.281640625 3.25 27.5 4.05 29.75 6.2 30.95
L 6.35 31.05
Q 9.65 32.15 12.2 30.4 13.5 29.9 14.6 30.1 14.95 30.15 15.25 30.25 17.7 30.75 20.55 31.85 14.7 21.9 11.9 20.6
L 11.8 20.5
Q 9.65 19.35 7.2 20.05
M 31.1 14.4
Q 31.1 11.5 29.05 9.4 27 7.35 24 7.35 21.1 7.35 19 9.4 17 11.5 17 14.4
L 17 14.65
Q 16.8013671875 18.3255859375 23.9 29.85 23.9525390625 29.9232421875 24 30 24.062890625 29.8998046875 24.1 29.8 31.2982421875 18.3181640625 31.1 14.65
L 31.1 14.4
M 19.1 35.9
Q 17.05 36.4 17.05 37.1 17.05 37.8 19.1 38.3 21.1 38.85 24 38.85 26.95 38.85 28.95 38.3 31 37.8 31 37.1 31 36.4 28.95 35.9 27.995703125 35.6375 26.8 35.5 25.542578125 35.35 24 35.35 22.4904296875 35.35 21.2 35.5 20.058984375 35.636328125 19.1 35.9
M 44.25 22.95
Q 43.15 20.8 40.85 20.05 38.4 19.35 36.25 20.5
L 36.1 20.6
Q 33.35 21.9 27.5 31.85 30.35 30.75 32.8 30.25 33.1 30.15 33.45 30.1 34.55 29.9 35.85 30.4 38.4 32.15 41.7 31.05
L 41.8 30.95
Q 44 29.75 44.8 27.5 45.123046875 26.282421875 45 25.15 44.853515625 24.00625 44.25 22.95 Z"/>
</g>
</defs>

<g transform="matrix( 1, 0, 0, 1, 0,0) ">
<use xlink:href="#Layer0_0_FILL"/>
</g>
</svg>
