
<svg xmlns="http://www.w3.org/2000/svg" version="1.1" xmlns:xlink="http://www.w3.org/1999/xlink" preserveAspectRatio="none" x="0px" y="0px" width="48px" height="48px" viewBox="0 0 48 48">
<defs>
<g id="Layer0_0_FILL">
<path fill="#37474F" stroke="none" d="
M 39 15.4
L 39 15
Q 39 8.8 34.6 4.4 30.25 0 24 0 17.8 0 13.4 4.4 9 8.8 9 15
L 9 15.4
Q 8.65 23.3 24 48 39.4 23.3 39 15.4
M 36 15
Q 36 20 32.5 23.5 29 27 24 27 19 27 15.5 23.5 12 20 12 15 12 10 15.5 6.5 19 3 24 3 29 3 32.5 6.5 36 10 36 15 Z"/>

<path fill="#FFFFFF" stroke="none" d="
M 32.5 23.5
Q 36 20 36 15 36 10 32.5 6.5 29 3 24 3 19 3 15.5 6.5 12 10 12 15 12 20 15.5 23.5 19 27 24 27 29 27 32.5 23.5
M 33 15
Q 33 18.75 30.4 21.4 27.75 24 24 24 20.25 24 17.65 21.4 15 18.75 15 15 15 11.25 17.65 8.65 20.25 6 24 6 27.75 6 30.4 8.65 33 11.25 33 15
M 29.35 12.3
L 28.25 11.25 22.85 16.65 19.6 13.4 18.55 14.5 22.85 18.8 29.35 12.3 Z"/>

<path fill="#2E7D32" stroke="none" d="
M 30.4 21.4
Q 33 18.75 33 15 33 11.25 30.4 8.65 27.75 6 24 6 20.25 6 17.65 8.65 15 11.25 15 15 15 18.75 17.65 21.4 20.25 24 24 24 27.75 24 30.4 21.4
M 28.25 11.25
L 29.35 12.3 22.85 18.8 18.55 14.5 19.6 13.4 22.85 16.65 28.25 11.25 Z"/>
</g>
</defs>

<g transform="matrix( 1, 0, 0, 1, 0,0) ">
<use xlink:href="#Layer0_0_FILL"/>
</g>
</svg>
